# xmcd CD database file
#
# Track frame offsets:
#	150
#	21439
#	32459
#	61942
#	108904
#	137811
#	168228
#	185716
#	208149
#	224523
#	250105
#	277222
#	296903
#	333297
#
# Disc length: 4738 seconds
#
# Revision: 0
# Processed by: cddbd v1.5.2PL0 Copyright (c) Steve Scherf et al.
# Submitted via: CDex 1.70beta2
#
DISCID=df12800e
DTITLE=Various Artist - NOTE LITHUANIA - JAZZ cd
DYEAR=2007
DGENRE=Jazz
TTITLE0=Juozas Milasius - Kino
TTITLE1=saga - african saga II
TTITLE2=Egidijus Buozis Quartet - Froglet's dance
TTITLE3=Eugenijus Kanevicius - Vox quaerentis
TTITLE4=Kestutis Vaiginis Quartet - Gipsy
TTITLE5=Domas Aleksa and D'Orange - Mr. VB
TTITLE6=Dimitry Golanov - How to earn money the easy way?
TTITLE7=Linas Rimsa - 1-2-3
TTITLE8=Labutis Jazz Quartet - Waltz
TTITLE9=Ian Maksimowisz and Eugenijus Kanevivius - Way
TTITLE10=Dainius Pulauskas Group - Expromtum
TTITLE11=Vytautas Labutis and Vytatutas Mikeliunas - Sunstone
TTITLE12=Leonid Shinkarenko Jazz 7 - Le Bolero
TTITLE13=Lithuanian Radio and Television Big Band - Going Crazy
EXTD=YEAR: 2007
EXTT0=
EXTT1=
EXTT2=
EXTT3=
EXTT4=
EXTT5=
EXTT6=
EXTT7=
EXTT8=
EXTT9=
EXTT10=
EXTT11=
EXTT12=
EXTT13=
PLAYORDER=
